<svg xmlns="http://www.w3.org/2000/svg" xmlns:xlink="http://www.w3.org/1999/xlink" width="357.912" height="497.674" viewBox="0 0 357.912 497.674"><defs><clipPath id="a"><path d="M20.057,3162.334,2.709,3134.268l-2.819-9.3v-13.251l6.3-10.15,251.256-139.516,34.483-19.3s11.277-7.591,11.494-7.623,51.79,0,51.79,0l.587,54.761v10.333l-35.846-51.824L309,2944.105S136.775,3034.593,112.126,3048.4l-98.594,55.219-4.5,3.336s-2.461,3.67-2.836,6.006l-1.5,9.342,1.5,6.173,17.683,31.21Z" transform="translate(0.11 -2935.109)" fill="#fff"/></clipPath><clipPath id="b"><path d="M4.927,3407.548l8.2,13.139,5.5,2.566,7.33,2.2h7.7l15.76-8.8,150.654-82.281v6.371s-124.448,67.938-166.414,90.57l-7.7,1.466-7.33-1.466-8.063-4.4c-2.016-1.1-6.964-8.8-6.964-8.8l-3.612-7.774Z" transform="translate(0.016 -3334.375)" fill="none"/></clipPath><clipPath id="c"><path d="M228.246,3057.024l65.213,88.592,70.75,132.272v33.837l-44.3,65.828-43.681,25.224s-43.681,17.226-44.911,20.3-27.685,21.533-27.685,21.533l-38.759,18.457-29.531-23.993-18.457-36.3-27.07-41.835L56.6,3303.727l-33.222-59.676V3213.29l6.152-17.226,15.38-11.689L76.9,3129l39.989-15.38,41.835,6.152,15.38-33.222,18.457-20.3Z" transform="translate(-23.378 -3057.024)" fill="none" stroke="#707070" stroke-width="1"/></clipPath></defs><g transform="translate(0)"><g transform="translate(2)" clip-path="url(#a)"><g transform="matrix(-0.875, 0.485, -0.485, -0.875, 501.015, 321.786)" fill="none" stroke="#1a416f" stroke-width="2"><rect width="374" height="374" rx="24" stroke="none"/><rect x="1" y="1" width="372" height="372" rx="23" fill="none"/></g></g><g transform="translate(157.737 399.266)" clip-path="url(#b)"><g transform="matrix(-0.875, 0.485, -0.485, -0.875, 345.278, -77.481)" fill="none" stroke="#1a416f" stroke-width="2"><rect width="374" height="374" rx="24" stroke="none"/><rect x="1" y="1" width="372" height="372" rx="23" fill="none"/></g></g><g transform="translate(0 83.891)" clip-path="url(#c)"><g transform="translate(328.977 399.719) rotate(180)" fill="none"><path d="M149.088,18.647l-1.631,39.236L180.9,78.472l35.069-18.647L217.6,20.589,184.157,0ZM40.268,77.175l-1.63,39.236L72.077,137l35.07-18.647,1.63-39.236L75.338,58.528ZM183.933,79.5l-1.082,40.268,33.988,21.621,35.07-18.647,1.082-40.268L219,60.857Zm-71,.544-1.63,39.236,33.44,20.589,35.069-18.647,1.631-39.236L148.005,61.4Zm-111.3,58.8L0,178.089l33.439,20.589,35.07-18.647L70.14,140.8,36.7,120.206Zm73.09,1.425-1.082,40.268,33.989,21.621,35.07-18.647,1.082-40.268L109.79,121.63Zm72.092,1.144-1.631,39.236,33.44,20.589,35.07-18.647,1.63-39.236-33.44-20.588Zm72.275,4.078-1.63,39.236,33.44,20.589,35.069-18.647,1.631-39.236-33.44-20.588ZM36.536,202.741l-1.63,39.236,33.44,20.589,35.069-18.647,1.631-39.236-33.44-20.589Zm73.732,1.287-1.631,39.236,33.44,20.589,35.07-18.647,1.63-39.236-33.44-20.589Zm143.665,2.329-1.082,40.267,33.989,21.621L321.91,249.6l1.081-40.267L289,187.71Zm-71,.544-1.63,39.236,33.439,20.589,35.07-18.647,1.63-39.236-33.44-20.589Zm-111.3,58.8L70,304.943l33.44,20.588,35.07-18.647,1.63-39.236L106.7,247.059Zm73.09,1.425L143.638,307.4l33.989,21.621,35.07-18.647,1.082-40.268L179.79,248.484Zm72.092,1.144-1.631,39.236,33.44,20.589,35.069-18.647,1.631-39.236-33.44-20.589Zm-110.275,61.32-1.63,39.236,33.44,20.589,35.07-18.647,1.63-39.236-33.439-20.589Z" stroke="none"/><path d="M 184.0842590332031 2.30389404296875 L 151.0383605957031 19.87506103515625 L 149.5038299560547 56.794189453125 L 180.9701232910156 76.16802978515625 L 214.0160217285156 58.59686279296875 L 215.5505523681641 21.677734375 L 184.0842590332031 2.30389404296875 M 75.26528930664063 60.83175659179688 L 42.21853637695313 78.40292358398438 L 40.68484497070313 115.322998046875 L 72.15020751953125 134.6968383789063 L 105.1969604492188 117.1256408691406 L 106.7306365966797 80.20553588867188 L 75.26528930664063 60.83175659179688 M 218.9132080078125 63.17013549804688 L 185.9010009765625 80.722900390625 L 184.8809356689453 118.6927490234375 L 216.9297790527344 139.0796661376953 L 249.9419860839844 121.5267944335938 L 250.9620666503906 83.55694580078125 L 218.9132080078125 63.17013549804688 M 147.9321594238281 63.70632934570313 L 114.8854370117188 81.27658081054688 L 113.3517608642578 118.1966857910156 L 144.8180236816406 137.5705261230469 L 177.8639373779297 119.9993591308594 L 179.3984527587891 83.07928466796875 L 147.9321594238281 63.70632934570313 M 36.62738037109375 122.5096130371094 L 3.58062744140625 140.0807800292969 L 2.046966552734375 177.0009613037109 L 33.51229858398438 196.3747406005859 L 66.55905151367188 178.8035736083984 L 68.09274291992188 141.8833923339844 L 36.62738037109375 122.5096130371094 M 109.7000122070313 123.9435424804688 L 76.68778991699219 141.4963531494141 L 75.667724609375 179.4662170410156 L 107.7165679931641 199.8530578613281 L 140.7287902832031 182.3002624511719 L 141.7488555908203 144.3303985595703 L 109.7000122070313 123.9435424804688 M 181.8081665039063 125.0791320800781 L 148.7622528076172 142.6493988037109 L 147.2277374267578 179.5694885253906 L 178.6940307617188 198.9433288574219 L 211.7407531738281 181.3721771240234 L 213.2744445800781 144.4521026611328 L 181.8081665039063 125.0791320800781 M 254.0844573974609 129.156982421875 L 221.0377349853516 146.7273254394531 L 219.5040588378906 183.6473999023438 L 250.9703216552734 203.0212249755859 L 284.0162353515625 185.4500579833984 L 285.5507507324219 148.5300140380859 L 254.0844573974609 129.156982421875 M 71.53385925292969 186.3979797363281 L 38.48712158203125 203.9691314697266 L 36.95346069335938 240.8891906738281 L 68.41972351074219 260.2630004882813 L 101.4656372070313 242.6918487548828 L 103.0001525878906 205.7718200683594 L 71.53385925292969 186.3979797363281 M 145.2645721435547 187.6849822998047 L 112.2186584472656 205.2561492919922 L 110.6841278076172 242.1761779785156 L 142.1504364013672 261.5500183105469 L 175.1971588134766 243.9788818359375 L 176.7308349609375 207.0588073730469 L 145.2645721435547 187.6849822998047 M 288.9133911132813 190.0233612060547 L 255.9011840820313 207.5761566162109 L 254.8811340332031 245.5451202392578 L 286.9299621582031 265.9319458007813 L 319.9421691894531 248.3791656494141 L 320.9613952636719 210.4102172851563 L 288.9133911132813 190.0233612060547 M 217.932373046875 190.5586700439453 L 184.8856353759766 208.1298217773438 L 183.3519592285156 245.0499572753906 L 214.8173065185547 264.4237365722656 L 247.8640441894531 246.8525848388672 L 249.3977355957031 209.9324493408203 L 217.932373046875 190.5586700439453 M 106.6275787353516 249.3628692626953 L 73.58084106445313 266.9340209960938 L 72.04714965820313 303.8541259765625 L 103.5124969482422 323.22705078125 L 136.5592498779297 305.6558837890625 L 138.0929412841797 268.7366333007813 L 106.6275787353516 249.3628692626953 M 179.7002105712891 250.7967376708984 L 146.68798828125 268.3495483398438 L 145.6679229736328 306.3193969726563 L 177.7167663574219 326.7062683105469 L 210.72900390625 309.1534423828125 L 211.7490539550781 271.1835327148438 L 179.7002105712891 250.7967376708984 M 251.8083648681641 251.9314880371094 L 218.762451171875 269.5026550292969 L 217.2279357910156 306.4226684570313 L 248.6942138671875 325.7965087890625 L 281.7401428222656 308.225341796875 L 283.274658203125 271.3053283691406 L 251.8083648681641 251.9314880371094 M 141.5340881347656 313.2511596679688 L 108.4873352050781 330.8223266601563 L 106.9536590576172 367.7424011230469 L 138.4190063476563 387.1162414550781 L 171.4657592773438 369.5450439453125 L 172.9994354248047 332.6249389648438 L 141.5340881347656 313.2511596679688 M 184.1570892333984 0 L 217.5975036621094 20.58929443359375 L 215.9667053222656 59.82479858398438 L 180.8972930908203 78.47189331054688 L 147.4568939208984 57.88259887695313 L 149.0876922607422 18.6470947265625 L 184.1570892333984 0 Z M 75.33808898925781 58.52789306640625 L 108.777587890625 79.1171875 L 107.1476898193359 118.3535461425781 L 72.077392578125 137.0007019042969 L 38.63790893554688 116.4113464355469 L 40.26779174804688 77.17498779296875 L 75.33808898925781 58.52789306640625 Z M 219.0032958984375 60.85711669921875 L 252.9917907714844 82.47775268554688 L 251.9100036621094 122.7455444335938 L 216.8396911621094 141.3927001953125 L 182.8511962890625 119.7719421386719 L 183.9329986572266 79.504150390625 L 219.0032958984375 60.85711669921875 Z M 148.0049896240234 61.40249633789063 L 181.4453887939453 81.9908447265625 L 179.8145904541016 121.227294921875 L 144.7451934814453 139.8744049072266 L 111.3047943115234 119.2850952148438 L 112.9346923828125 80.04864501953125 L 148.0049896240234 61.40249633789063 Z M 36.7001953125 120.2057495117188 L 70.13969421386719 140.7950592041016 L 68.50979614257813 180.0315093994141 L 33.43948364257813 198.6786041259766 L 0 178.0893096923828 L 1.6298828125 138.8528594970703 L 36.7001953125 120.2057495117188 Z M 109.7901000976563 121.6304931640625 L 143.7785949707031 143.2512054443359 L 142.6967926025391 183.5189971923828 L 107.6264953613281 202.1661071777344 L 73.63800048828125 180.5453948974609 L 74.71978759765625 140.2776031494141 L 109.7901000976563 121.6304931640625 Z M 181.8809967041016 122.7752990722656 L 215.3213958740234 143.3637084960938 L 213.6914978027344 182.60009765625 L 178.6212005615234 201.2472076416016 L 145.1808013916016 180.6578979492188 L 146.8115997314453 141.4214477539063 L 181.8809967041016 122.7752990722656 Z M 254.1572875976563 126.8531494140625 L 287.5976867675781 147.4416046142578 L 285.9668884277344 186.6780090332031 L 250.8974914550781 205.3251037597656 L 217.4570922851563 184.7358093261719 L 219.0870056152344 145.4994049072266 L 254.1572875976563 126.8531494140625 Z M 71.606689453125 184.0941009521484 L 105.0470886230469 204.6833953857422 L 103.4162902832031 243.9197998046875 L 68.34689331054688 262.56689453125 L 34.906494140625 241.9776000976563 L 36.53640747070313 202.7411956787109 L 71.606689453125 184.0941009521484 Z M 145.3373870849609 185.381103515625 L 178.7778015136719 205.9703979492188 L 177.1478881835938 245.2068023681641 L 142.0775909423828 263.8539123535156 L 108.6371917724609 243.2646026611328 L 110.2679901123047 204.0281982421875 L 145.3373870849609 185.381103515625 Z M 289.0034790039063 187.7102966308594 L 322.9910888671875 209.3310089111328 L 321.9101867675781 249.597900390625 L 286.8399047851563 268.2449951171875 L 252.8513946533203 246.6242980957031 L 253.9331970214844 206.3574066162109 L 289.0034790039063 187.7102966308594 Z M 218.0051879882813 188.2548065185547 L 251.4447021484375 208.8441009521484 L 249.8147888183594 248.0805053710938 L 214.7444915771484 266.7276000976563 L 181.3049926757813 246.1383056640625 L 182.9348907470703 206.9019012451172 L 218.0051879882813 188.2548065185547 Z M 106.7003936767578 247.0590057373047 L 140.139892578125 267.6483154296875 L 138.5099945068359 306.8837890625 L 103.439697265625 325.5309143066406 L 70.00019836425781 304.9425048828125 L 71.63009643554688 265.7061157226563 L 106.7003936767578 247.0590057373047 Z M 179.7902984619141 248.4837036132813 L 213.7787933349609 270.1043701171875 L 212.6969909667969 310.3721923828125 L 177.6266937255859 329.019287109375 L 143.6381988525391 307.3986206054688 L 144.7200012207031 267.1307983398438 L 179.7902984619141 248.4837036132813 Z M 251.8811950683594 249.6276092529297 L 285.3215942382813 270.2169189453125 L 283.6907958984375 309.4533081054688 L 248.6213989257813 328.1004028320313 L 215.1809997558594 307.5111083984375 L 216.8117980957031 268.2747192382813 L 251.8811950683594 249.6276092529297 Z M 141.6068878173828 310.9472961425781 L 175.0464019775391 331.5365905761719 L 173.4164886474609 370.77294921875 L 138.34619140625 389.4201049804688 L 104.9066925048828 368.8307495117188 L 106.5365905761719 329.5943908691406 L 141.6068878173828 310.9472961425781 Z" stroke="none" fill="#1a416f"/></g><g transform="matrix(0.883, -0.469, 0.469, 0.883, -10.468, 159.445)" fill="#3ca9e6"><path d="M 58.99619293212891 69.09284210205078 L 20.44235992431641 69.09284210205078 L 1.149393916130066 35.04641723632813 L 20.4423713684082 1.000006079673767 L 58.99619293212891 1.000006079673767 L 78.28916168212891 35.04641723632813 L 58.99619293212891 69.09284210205078 Z" stroke="none"/><path d="M 21.02510070800781 1.999992370605469 L 2.298789978027344 35.04641723632813 L 21.02508926391602 68.09282684326172 L 58.4134521484375 68.09282684326172 L 77.13975524902344 35.04641723632813 L 58.4134521484375 1.999992370605469 L 21.02510070800781 1.999992370605469 M 19.85964202880859 -7.62939453125e-06 L 59.57891082763672 -7.62939453125e-06 L 79.43854522705078 35.04641723632813 L 59.57891082763672 70.09282684326172 L 19.8596305847168 70.09282684326172 L -7.62939453125e-06 35.04641723632813 L 19.85964202880859 -7.62939453125e-06 Z" stroke="none" fill="#1a416f"/></g><g transform="matrix(-0.883, 0.469, -0.469, -0.883, 236.245, 186.368)" fill="#3ca9e6"><path d="M 59.0059700012207 66.75641632080078 L 20.43259429931641 66.75641632080078 L 1.159156560897827 33.87820434570313 L 20.43258285522461 1.000004291534424 L 59.0059700012207 1.000004291534424 L 78.27939605712891 33.87820434570313 L 59.0059700012207 66.75641632080078 Z" stroke="none"/><path d="M 58.43301391601563 65.75640106201172 L 77.12024688720703 33.87820434570313 L 58.43301391601563 2.000004291534424 L 21.00552558898926 2.000004291534424 L 2.318315982818604 33.87820434570313 L 21.00553703308105 65.75640106201172 L 58.43301391601563 65.75640106201172 M 59.57891082763672 67.75640106201172 L 19.85964202880859 67.75640106201172 L 5.83998735237401e-06 33.87820434570313 L 19.85962867736816 4.345703018771019e-06 L 59.57891082763672 4.345703018771019e-06 L 79.43856048583984 33.87820434570313 L 59.57891082763672 67.75640106201172 Z" stroke="none" fill="#1a416f"/></g><g transform="matrix(0.883, -0.469, 0.469, 0.883, 131.627, 287.815)" fill="#3ca9e6"><path d="M 59.0059700012207 66.75641632080078 L 20.43258285522461 66.75641632080078 L 1.159156560897827 33.87820434570313 L 20.43259429931641 1.000004291534424 L 59.0059700012207 1.000004291534424 L 78.27939605712891 33.87820434570313 L 59.0059700012207 66.75641632080078 Z" stroke="none"/><path d="M 21.00553894042969 2.000007629394531 L 2.318305969238281 33.87820434570313 L 21.00552749633789 65.75640106201172 L 58.43301391601563 65.75640106201172 L 77.1202392578125 33.87820434570313 L 58.43301391601563 2.000007629394531 L 21.00553894042969 2.000007629394531 M 19.85964202880859 7.62939453125e-06 L 59.57891082763672 7.62939453125e-06 L 79.43854522705078 33.87820434570313 L 59.57891082763672 67.75640106201172 L 19.8596305847168 67.75640106201172 L -7.62939453125e-06 33.87820434570313 L 19.85964202880859 7.62939453125e-06 Z" stroke="none" fill="#1a416f"/></g></g></g></svg>