<svg xmlns="http://www.w3.org/2000/svg" width="51.022" height="51.022" viewBox="0 0 51.022 51.022"><ellipse cx="24.5" cy="24.5" rx="24.5" ry="24.5" transform="translate(1.203 0.819)" fill="#1a406d"/><path d="M28.886,3.375A25.511,25.511,0,1,0,54.4,28.886,25.507,25.507,0,0,0,28.886,3.375Zm5.323,35.458a2.376,2.376,0,0,1,0,3.348,2.338,2.338,0,0,1-1.668.687,2.379,2.379,0,0,1-1.68-.7L19.332,30.6a2.364,2.364,0,0,1,.074-3.262L31.106,15.6a2.368,2.368,0,0,1,3.348,3.348L24.409,28.886Z" transform="translate(-3.375 -3.375)" fill="#fff"/></svg>