<svg xmlns="http://www.w3.org/2000/svg" width="51.022" height="51.022" viewBox="0 0 51.022 51.022"><ellipse cx="24.5" cy="24.5" rx="24.5" ry="24.5" transform="translate(0.819 0.819)" fill="#1a406d"/><path d="M28.886,3.375A25.511,25.511,0,1,1,3.375,28.886,25.507,25.507,0,0,1,28.886,3.375ZM23.563,38.833a2.376,2.376,0,0,0,0,3.348,2.338,2.338,0,0,0,1.668.687,2.379,2.379,0,0,0,1.68-.7L38.44,30.6a2.364,2.364,0,0,0-.074-3.262L26.666,15.6a2.368,2.368,0,0,0-3.348,3.348l10.045,9.935Z" transform="translate(-3.375 -3.375)" fill="#fff"/></svg>